<mxfile host="app.diagrams.net" modified="2024-06-10T01:38:08.782Z" agent="Mozilla/5.0 (Macintosh; Intel Mac OS X 10_15_7) AppleWebKit/537.36 (KHTML, like Gecko) Chrome/125.0.0.0 Safari/537.36" etag="N18RO2zBrXQVW6mbEiHr" version="24.5.2" type="github">
  <diagram name="第 1 页" id="KOOWM5gevUbhss61zQQ7">
    <mxGraphModel dx="954" dy="581" grid="1" gridSize="10" guides="1" tooltips="1" connect="1" arrows="1" fold="1" page="1" pageScale="1" pageWidth="827" pageHeight="1169" math="0" shadow="0">
      <root>
        <mxCell id="0" />
        <mxCell id="1" parent="0" />
        <mxCell id="taP_swigxIB-12rWRL_3-1" value="" style="rounded=1;whiteSpace=wrap;html=1;" parent="1" vertex="1">
          <mxGeometry x="60" y="180" width="440" height="250" as="geometry" />
        </mxCell>
        <mxCell id="tr7HyYsCuj7ZXyAxP3cz-1" value="应用1" style="image;sketch=0;aspect=fixed;html=1;points=[];align=center;fontSize=12;image=img/lib/mscae/App_Service_Mobile_App.svg;" vertex="1" parent="1">
          <mxGeometry x="170" y="90" width="34" height="50" as="geometry" />
        </mxCell>
        <mxCell id="tr7HyYsCuj7ZXyAxP3cz-2" value="应用2" style="image;sketch=0;aspect=fixed;html=1;points=[];align=center;fontSize=12;image=img/lib/mscae/App_Service_Mobile_App.svg;" vertex="1" parent="1">
          <mxGeometry x="337" y="90" width="34" height="50" as="geometry" />
        </mxCell>
        <mxCell id="tr7HyYsCuj7ZXyAxP3cz-3" value="系统调用子系统" style="rounded=1;whiteSpace=wrap;html=1;" vertex="1" parent="1">
          <mxGeometry x="80" y="200" width="390" height="40" as="geometry" />
        </mxCell>
        <mxCell id="tr7HyYsCuj7ZXyAxP3cz-4" value="进程管理子系统" style="rounded=1;whiteSpace=wrap;html=1;" vertex="1" parent="1">
          <mxGeometry x="80" y="260" width="120" height="60" as="geometry" />
        </mxCell>
        <mxCell id="tr7HyYsCuj7ZXyAxP3cz-5" value="内存管理子系统" style="rounded=1;whiteSpace=wrap;html=1;" vertex="1" parent="1">
          <mxGeometry x="217" y="260" width="120" height="60" as="geometry" />
        </mxCell>
        <mxCell id="tr7HyYsCuj7ZXyAxP3cz-6" value="文件子系统" style="rounded=1;whiteSpace=wrap;html=1;" vertex="1" parent="1">
          <mxGeometry x="350" y="260" width="120" height="60" as="geometry" />
        </mxCell>
        <mxCell id="tr7HyYsCuj7ZXyAxP3cz-7" value="网络子系统" style="rounded=1;whiteSpace=wrap;html=1;" vertex="1" parent="1">
          <mxGeometry x="135.5" y="340" width="120" height="60" as="geometry" />
        </mxCell>
        <mxCell id="tr7HyYsCuj7ZXyAxP3cz-8" value="设备子系统" style="rounded=1;whiteSpace=wrap;html=1;" vertex="1" parent="1">
          <mxGeometry x="298.5" y="340" width="120" height="60" as="geometry" />
        </mxCell>
      </root>
    </mxGraphModel>
  </diagram>
</mxfile>
